<svg xmlns="http://www.w3.org/2000/svg" viewBox="0 0 195 155" role="img" aria-labelledby="title desc"><title id="title">주위를 살피는 숲 너구리</title><desc id="desc">너구리가 고개를 들고 주변을 살핀다</desc>
<defs><linearGradient id="fur" x1="0" y1="0" x2="1" y2="1"><stop offset="0" stop-color="#c9beb2"/><stop offset=".55" stop-color="#9d9189"/><stop offset="1" stop-color="#756d6c"/></linearGradient><linearGradient id="tail" x1="0" y1="0" x2="1" y2="1"><stop offset="0" stop-color="#bdb0a5"/><stop offset="1" stop-color="#756d6c"/></linearGradient><radialGradient id="muzzle" cx="45%" cy="30%" r="70%"><stop offset="0" stop-color="#f7eee2"/><stop offset="1" stop-color="#d9c9ba"/></radialGradient></defs>
<path d="M34 140c35-3 87-3 132 0" fill="none" stroke="#886d52" stroke-width="3.2" stroke-linecap="round" opacity=".48"/><path d="M70 120C38 124 25 105 35 87c10-18 35-21 50-7 13 12 11 31-3 42 21 0 38 4 50 12-18 8-44 9-62-14Z" fill="url(#tail)" stroke="#6e6665" stroke-opacity=".68" stroke-width="2.8"/><g fill="none" stroke="#635e60" stroke-width="7" stroke-linecap="round" opacity=".72"><path d="M42 94c10-5 19-5 28-1"/><path d="M46 110c10-4 19-3 27 2"/></g>
<g stroke="#6e6665" stroke-opacity=".7" stroke-linecap="round" stroke-linejoin="round"><ellipse cx="111" cy="113" rx="34" ry="29" fill="url(#fur)" stroke-width="2.8"/><g transform="rotate(-5 116 72)"><circle cx="116" cy="72" r="31" fill="url(#fur)" stroke-width="2.8"/><path d="M94 52 90 28l22 18M132 47l22-18-5 27" fill="#8e8380" stroke-width="2.6"/><path d="M98 48 94 36l12 9M139 46l11-10-3 14" fill="#d5aaa7" stroke="none"/><path d="M91 65c15-14 36-17 54-5-5 17-18 27-32 27-12 0-20-7-22-22Z" fill="#5f5a5d" stroke="none" opacity=".92"/><ellipse cx="134" cy="80" rx="19" ry="15" fill="url(#muzzle)" stroke="none"/><circle cx="110" cy="68" r="4.9" fill="#403f42" stroke="none"/><circle cx="111.6" cy="66.4" r="1.3" fill="#fff" stroke="none"/><ellipse cx="151" cy="80" rx="4.5" ry="3.4" fill="#4f4545" stroke="none"/></g><path d="M96 111c7 5 11 13 12 24M126 114c8 5 13 12 14 21M97 136h20m16 0h19" fill="none" stroke-width="2.6"/></g></svg>