<svg xmlns="http://www.w3.org/2000/svg" viewBox="0 0 180 150" role="img" aria-labelledby="title desc">
  <title id="title">숲 토끼</title>
  <desc id="desc">파스텔 숲에 앉아 있는 작은 토끼</desc>
  <defs>
    <linearGradient id="body" x1="0" y1="0" x2="1" y2="1">
      <stop offset="0" stop-color="#f8e6cf"/>
      <stop offset="1" stop-color="#e8bf92"/>
    </linearGradient>
    <linearGradient id="ear" x1="0" y1="0" x2="0" y2="1">
      <stop offset="0" stop-color="#f4c7c0"/>
      <stop offset="1" stop-color="#d99e98"/>
    </linearGradient>
    <radialGradient id="cheek" cx="50%" cy="50%" r="50%">
      <stop offset="0" stop-color="#efb6ae" stop-opacity=".9"/>
      <stop offset="1" stop-color="#efb6ae" stop-opacity="0"/>
    </radialGradient>
    <filter id="soft" x="-20%" y="-20%" width="140%" height="140%">
      <feGaussianBlur stdDeviation="1.4"/>
    </filter>
  </defs>
  <ellipse cx="94" cy="132" rx="50" ry="7" fill="#90b67d" opacity=".30"/>
  <path d="M53 130c18-4 58-5 83-1" fill="none" stroke="#75aa67" stroke-width="4" stroke-linecap="round" opacity=".75"/>
  <path d="M64 128c-1-9 3-15 10-20 7-6 18-9 31-8 18 1 31 9 34 23 1 4 0 7-2 10H70c-4-1-6-2-6-5Z" fill="url(#body)" stroke="#8b6b59" stroke-width="4" stroke-linejoin="round"/>
  <ellipse cx="65" cy="112" rx="20" ry="22" fill="#f1d2ad" stroke="#8b6b59" stroke-width="4"/>
  <circle cx="109" cy="82" r="31" fill="url(#body)" stroke="#8b6b59" stroke-width="4"/>
  <path d="M91 58C84 39 84 18 94 10c11 11 14 29 9 49" fill="#f3d4b2" stroke="#8b6b59" stroke-width="4" stroke-linecap="round" stroke-linejoin="round"/>
  <path d="M111 56c-1-20 7-40 18-45 6 15 2 34-8 51" fill="#f3d4b2" stroke="#8b6b59" stroke-width="4" stroke-linecap="round" stroke-linejoin="round"/>
  <path d="M94 48c-4-13-3-24 1-31 5 8 6 19 4 31" fill="url(#ear)" opacity=".9"/>
  <path d="M116 48c1-13 5-24 11-30 2 9 0 20-6 31" fill="url(#ear)" opacity=".9"/>
  <ellipse cx="127" cy="88" rx="16" ry="13" fill="#f7e7d4"/>
  <circle cx="104" cy="78" r="4.6" fill="#4e4845"/>
  <circle cx="105.5" cy="76.5" r="1.4" fill="#fff"/>
  <ellipse cx="135" cy="87" rx="4.4" ry="3.3" fill="#6d5550"/>
  <path d="M136 91c-2 3-5 4-8 4" fill="none" stroke="#7e655d" stroke-width="2.3" stroke-linecap="round"/>
  <ellipse cx="118" cy="93" rx="12" ry="8" fill="url(#cheek)" opacity=".55"/>
  <path d="M96 111c8 3 13 10 14 20" fill="none" stroke="#8b6b59" stroke-width="4" stroke-linecap="round"/>
  <path d="M110 128c8-6 18-6 26 0" fill="#f4d7b7" stroke="#8b6b59" stroke-width="4" stroke-linecap="round"/>
  <circle cx="54" cy="104" r="13" fill="#fbf5ec" stroke="#8b6b59" stroke-width="3"/>
  <circle cx="89" cy="61" r="4" fill="#fff" opacity=".55" filter="url(#soft)"/>
</svg>
