<svg xmlns="http://www.w3.org/2000/svg" viewBox="0 0 180 175" role="img" aria-labelledby="title desc">
  <title id="title">주변을 살피는 나무 위 숲 다람쥐</title>
  <desc id="desc">나무줄기를 붙잡은 채 고개를 조금 들고 숲을 바라보는 작은 다람쥐</desc>
  <defs>
    <linearGradient id="fur" x1="0" y1="0" x2="1" y2="1"><stop offset="0" stop-color="#e8b47c"/><stop offset=".55" stop-color="#cb8952"/><stop offset="1" stop-color="#a9663f"/></linearGradient>
    <linearGradient id="tail" x1="0" y1="0" x2="1" y2="1"><stop offset="0" stop-color="#f0c492"/><stop offset=".5" stop-color="#d4935c"/><stop offset="1" stop-color="#a96741"/></linearGradient>
    <radialGradient id="belly" cx="46%" cy="34%" r="72%"><stop offset="0" stop-color="#fff1d8"/><stop offset="1" stop-color="#edc697"/></radialGradient>
    <radialGradient id="cheek" cx="50%" cy="50%" r="50%"><stop offset="0" stop-color="#eaa596" stop-opacity=".68"/><stop offset="1" stop-color="#eaa596" stop-opacity="0"/></radialGradient>
    <filter id="contactSoft" x="-100%" y="-80%" width="300%" height="260%"><feGaussianBlur stdDeviation="2.1"/></filter>
  </defs>

  <ellipse cx="61" cy="113" rx="8" ry="34" fill="#6b4f3d" opacity=".13" filter="url(#contactSoft)"/>
  <path d="M118 151c28-8 41-34 32-57-7-20-27-31-44-23-15 7-20 23-13 36 6 11 19 16 30 11-10 10-15 21-17 34Z" fill="url(#tail)" stroke="#88634d" stroke-opacity=".68" stroke-width="2.8" stroke-linejoin="round"/>
  <path d="M121 132c17-8 24-23 18-36-5-12-17-18-28-13-9 4-13 14-9 22 4 8 13 11 21 7-5 6-8 13-8 20Z" fill="#f2c89a" opacity=".82"/>
  <path d="M130 85c9 4 15 11 17 19" fill="none" stroke="#fff3df" stroke-width="5" stroke-linecap="round" opacity=".22"/>

  <g transform="rotate(-7 94 103)" stroke="#88634d" stroke-opacity=".7" stroke-linecap="round" stroke-linejoin="round">
    <ellipse cx="94" cy="111" rx="28" ry="37" fill="url(#fur)" stroke-width="2.8"/>
    <ellipse cx="91" cy="117" rx="18" ry="25" fill="url(#belly)" stroke="none" opacity=".94"/>
    <g transform="translate(-2 -4) rotate(-7 84 68)">
      <circle cx="84" cy="68" r="25" fill="url(#fur)" stroke-width="2.7"/>
      <path d="M65 52 66 31l15 17" fill="#d8945d" stroke-width="2.6"/>
      <path d="M87 47 101 31l0 23" fill="#d8945d" stroke-width="2.6"/>
      <path d="m70 47 0-10 7 10" fill="#e9ad9d" stroke="none" opacity=".78"/>
      <path d="m93 45 7-9-2 14" fill="#e9ad9d" stroke="none" opacity=".78"/>
      <ellipse cx="63" cy="72" rx="15" ry="11" fill="#f6dfc1" stroke="none"/>
      <circle cx="79" cy="63" r="4.6" fill="#494744" stroke="none"/>
      <circle cx="80.6" cy="61.3" r="1.35" fill="#fff" stroke="none" opacity=".95"/>
      <ellipse cx="53" cy="72" rx="3.8" ry="2.9" fill="#6d4f48" stroke="none"/>
      <path d="M52 76c2 3 5 4 8 4" fill="none" stroke="#7c6057" stroke-width="1.8"/>
      <ellipse cx="69" cy="78" rx="10" ry="7" fill="url(#cheek)" stroke="none" opacity=".44"/>
      <path d="M72 55c6-4 13-5 19-3" fill="none" stroke="#fff5e6" stroke-width="4" opacity=".25"/>
    </g>
    <path d="M72 91C61 86 55 78 52 69" fill="none" stroke-width="3"/>
    <path d="M76 101C62 99 55 94 50 86" fill="none" stroke-width="3"/>
    <path d="M51 69c-5 1-8 3-10 6M50 86c-5 0-8 2-11 5" fill="none" stroke-width="2.3"/>
    <path d="M78 143c-8 2-14 0-19-5M100 145c-7 4-14 5-20 1" fill="none" stroke-width="2.8"/>
  </g>

  <path d="M78 92c5-3 10-4 15-3" fill="none" stroke="#fff2dc" stroke-width="4" stroke-linecap="round" opacity=".18"/>
</svg>
