<svg xmlns="http://www.w3.org/2000/svg" viewBox="0 0 195 155" role="img" aria-labelledby="title desc"><title id="title">숲 너구리</title><desc id="desc">회갈색 너구리가 줄무늬 꼬리를 감고 낮은 가지에 앉아 있다</desc>
<defs><linearGradient id="fur" x1="0" y1="0" x2="1" y2="1"><stop offset="0" stop-color="#c9beb2"/><stop offset=".55" stop-color="#9d9189"/><stop offset="1" stop-color="#756d6c"/></linearGradient><linearGradient id="tail" x1="0" y1="0" x2="1" y2="1"><stop offset="0" stop-color="#bdb0a5"/><stop offset="1" stop-color="#756d6c"/></linearGradient><radialGradient id="muzzle" cx="45%" cy="30%" r="70%"><stop offset="0" stop-color="#f7eee2"/><stop offset="1" stop-color="#d9c9ba"/></radialGradient></defs>
<path d="M34 140c35-3 87-3 132 0" fill="none" stroke="#886d52" stroke-width="3.2" stroke-linecap="round" opacity=".48"/>
<path d="M70 120C38 124 25 105 35 87c10-18 35-21 50-7 13 12 11 31-3 42 21 0 38 4 50 12-18 8-44 9-62-14Z" fill="url(#tail)" stroke="#6e6665" stroke-opacity=".68" stroke-width="2.8"/>
<g fill="none" stroke="#635e60" stroke-width="7" stroke-linecap="round" opacity=".72"><path d="M42 94c10-5 19-5 28-1"/><path d="M46 110c10-4 19-3 27 2"/></g>
<g stroke="#6e6665" stroke-opacity=".7" stroke-linecap="round" stroke-linejoin="round"><ellipse cx="111" cy="113" rx="34" ry="29" fill="url(#fur)" stroke-width="2.8"/><circle cx="116" cy="74" r="31" fill="url(#fur)" stroke-width="2.8"/><path d="M94 54 92 31l20 17M132 49l21-16-5 25" fill="#8e8380" stroke-width="2.6"/><path d="M98 50 96 39l10 10M139 48l10-9-3 14" fill="#d5aaa7" stroke="none"/><path d="M91 67c15-14 36-17 54-5-5 17-18 27-32 27-12 0-20-7-22-22Z" fill="#5f5a5d" stroke="none" opacity=".92"/><ellipse cx="134" cy="82" rx="19" ry="15" fill="url(#muzzle)" stroke="none"/><path d="M96 111c7 5 11 13 12 24M126 114c8 5 13 12 14 21M97 136h20m16 0h19" fill="none" stroke-width="2.6"/></g>
<circle cx="110" cy="70" r="4.3" fill="#403f42"/><circle cx="111.4" cy="68.6" r="1.2" fill="#fff"/><ellipse cx="151" cy="82" rx="4.5" ry="3.4" fill="#4f4545"/><path d="M151 86c-3 3-7 4-11 3" fill="none" stroke="#70605b" stroke-width="1.8" stroke-linecap="round"/><path d="M105 57c8-4 16-5 24-2" fill="none" stroke="#fff8ed" stroke-width="4" stroke-linecap="round" opacity=".22"/></svg>