<svg xmlns="http://www.w3.org/2000/svg" viewBox="0 0 64 64">
  <rect width="64" height="64" rx="18" fill="#07100f"/>
  <circle cx="32" cy="34" r="24" fill="#13241f"/>
  <path d="M32 12c-8 6-15 15-15 25 0 8 6 14 15 14s15-6 15-14c0-10-7-19-15-25Z" fill="#8fcf8f"/>
  <path d="M32 21v30" stroke="#24412d" stroke-width="5" stroke-linecap="round"/>
  <path d="M32 34c-8-2-13-7-15-14 9 0 15 4 15 14Z" fill="#d9f7b5" opacity=".9"/>
  <path d="M32 38c8-2 13-7 15-14-9 0-15 4-15 14Z" fill="#d9f7b5" opacity=".75"/>
</svg>
