<svg xmlns="http://www.w3.org/2000/svg" viewBox="0 0 520 680">
  <defs>
    <radialGradient id="glow" cx="50%" cy="52%" r="48%"><stop offset="0" stop-color="#defdb6" stop-opacity="0.22"/><stop offset="0.58" stop-color="#7bb982" stop-opacity="0.09"/><stop offset="1" stop-color="#07100f" stop-opacity="0"/></radialGradient>
    <linearGradient id="trunk" x1="0" y1="0" x2="1" y2="0"><stop stop-color="#3b2418"/><stop offset="0.5" stop-color="#8b613f"/><stop offset="1" stop-color="#20130e"/></linearGradient>
    <linearGradient id="leaf" x1="0" y1="0" x2="1" y2="1"><stop stop-color="#6f9469"/><stop offset="0.55" stop-color="#35533d"/><stop offset="1" stop-color="#15251f"/></linearGradient>
    <filter id="blur"><feGaussianBlur stdDeviation="1.8"/></filter>
  </defs>
  <circle cx="260" cy="350" r="245" fill="url(#glow)"/>
  <ellipse cx="260" cy="602" rx="190" ry="56" fill="#020605" opacity="0.50" filter="url(#blur)"/>
  <path d="M238 572C244 490 248 408 230 320C257 345 275 420 276 572Z" fill="url(#trunk)"/>
  <path d="M259 438C226 391 191 371 142 362" stroke="#624021" stroke-width="18" stroke-linecap="round" opacity="0.72"/>
  <path d="M268 410C299 360 331 332 385 316" stroke="#6d4828" stroke-width="16" stroke-linecap="round" opacity="0.7"/>
  <path d="M254 294C177 283 117 226 111 154C173 124 247 145 282 204C315 143 399 127 453 171C445 248 384 299 310 304C327 351 306 394 258 408C211 389 192 345 254 294Z" fill="url(#leaf)"/>
  <path d="M121 344C151 263 229 249 284 294C237 336 174 363 121 344Z" fill="#284334" opacity="0.94"/>
  <path d="M405 302C361 370 297 371 258 405C253 338 318 294 405 302Z" fill="#243f30" opacity="0.9"/>
  <path d="M236 560C201 590 163 601 104 593" stroke="#4e321e" stroke-width="12" stroke-linecap="round" opacity="0.65"/>
  <path d="M272 560C315 589 360 596 420 582" stroke="#4e321e" stroke-width="12" stroke-linecap="round" opacity="0.65"/>
  <path d="M260 215C236 241 214 271 199 308" stroke="#d7ffb9" stroke-opacity="0.08" stroke-width="10" fill="none"/>
</svg>
